<?xml version="1.0" standalone="no"?>
<!DOCTYPE svg PUBLIC "-//W3C//DTD SVG 20010904//EN"
 "http://www.w3.org/TR/2001/REC-SVG-20010904/DTD/svg10.dtd">
<svg version="1.0" xmlns="http://www.w3.org/2000/svg"
 width="450.000000pt" height="450.000000pt" viewBox="0 0 450.000000 450.000000"
 preserveAspectRatio="xMidYMid meet">
<metadata>
Created by potrace 1.11, written by Peter Selinger 2001-2013
</metadata>
<g transform="translate(0.000000,450.000000) scale(0.100000,-0.100000)"
fill="#000000" stroke="none">
<path d="M2223 4083 c9 -2 25 -2 35 0 9 3 1 5 -18 5 -19 0 -27 -2 -17 -5z"/>
<path d="M2207 4020 c-16 -5 -34 -14 -42 -20 -9 -7 -34 -9 -74 -4 -49 5 -66 3
-87 -11 -20 -13 -51 -18 -128 -19 -105 -2 -137 -11 -156 -46 -8 -15 -15 -18
-28 -11 -27 14 -58 -4 -80 -49 -19 -38 -21 -40 -34 -22 -24 34 -36 33 -71 -4
-30 -32 -37 -35 -56 -25 -23 13 -41 3 -54 -31 -3 -10 -15 -18 -26 -18 -11 0
-41 -18 -66 -40 -26 -22 -60 -47 -76 -55 -16 -9 -29 -22 -29 -31 0 -8 -8 -17
-17 -21 -50 -16 -105 -47 -110 -62 -3 -9 -12 -23 -19 -31 -15 -18 -45 -98 -46
-120 0 -8 -2 -22 -5 -30 -4 -8 -7 -19 -7 -24 -1 -5 -9 -10 -18 -12 -16 -2 -17
1 -18 63 0 16 -5 21 -15 17 -8 -4 -15 -10 -15 -15 0 -5 -10 -8 -22 -6 -17 2
-23 -5 -29 -30 -3 -18 -11 -39 -16 -45 -6 -7 -14 -30 -17 -52 -4 -21 -9 -36
-12 -33 -10 10 -67 -58 -76 -90 -11 -40 -45 -74 -66 -66 -10 4 -13 2 -8 -5 4
-6 0 -22 -8 -34 -8 -13 -24 -59 -35 -103 -35 -141 -44 -169 -63 -197 -10 -14
-16 -33 -13 -40 3 -8 -6 -27 -20 -42 -18 -19 -25 -38 -25 -66 0 -21 -4 -50
-10 -65 -5 -14 -12 -38 -15 -53 -11 -63 -27 -170 -30 -207 -2 -22 -7 -60 -11
-85 -18 -120 1 -253 67 -453 276 -844 1140 -1360 2021 -1207 856 148 1489 897
1488 1763 0 338 -89 654 -266 945 -53 87 -131 192 -142 190 -16 -3 -42 15 -42
30 0 13 4 12 22 -4 12 -10 -2 10 -32 45 -71 82 -201 197 -315 276 -87 60 -272
165 -291 165 -5 0 -1 -5 9 -11 49 -29 -7 -47 -61 -19 -29 15 -45 18 -63 12
-25 -10 -64 1 -124 32 -17 8 -68 22 -115 30 -47 8 -98 19 -115 24 -16 5 -67 9
-112 10 -45 1 -93 6 -108 12 -30 11 -30 11 -68 0z m293 -226 c387 -58 760
-299 998 -646 34 -49 47 -57 55 -35 9 20 27 -14 27 -51 0 -18 18 -74 39 -125
87 -205 120 -348 128 -553 10 -246 -20 -421 -109 -638 -77 -188 -171 -330
-317 -481 -137 -140 -340 -279 -508 -344 l-53 -21 -14 23 c-13 20 -13 32 0
102 23 124 45 284 46 340 0 11 -3 55 -6 99 -8 91 0 106 53 107 20 1 46 4 59 8
23 6 22 8 -31 89 -31 45 -67 96 -81 113 -16 19 -26 43 -26 63 0 30 -39 229
-59 303 -5 17 -7 34 -4 37 9 9 38 -7 63 -35 37 -41 131 -101 148 -94 8 3 23
-2 33 -11 33 -29 171 -94 202 -94 32 0 113 46 122 68 6 17 -7 42 -45 84 l-30
33 -36 -20 c-24 -13 -40 -16 -48 -9 -7 5 -31 21 -52 35 -21 15 -64 49 -94 77
-30 29 -65 52 -76 52 -27 0 -50 34 -60 86 -4 21 -20 69 -36 106 -15 37 -28 73
-28 80 0 8 -15 45 -34 84 -27 57 -43 76 -88 108 -31 21 -60 47 -65 59 -11 24
0 67 16 67 6 0 10 19 10 43 0 23 5 58 10 77 23 75 9 262 -19 245 -5 -3 -19 0
-31 8 -11 8 -29 13 -40 10 -10 -3 -19 0 -19 6 0 25 -32 9 -58 -29 -15 -22 -37
-43 -49 -46 -30 -8 -45 -63 -48 -170 -2 -45 -7 -90 -13 -100 -17 -32 -74 -81
-124 -107 -25 -13 -58 -35 -73 -48 -26 -23 -44 -41 -166 -170 -52 -55 -59 -59
-100 -59 -25 0 -53 6 -63 13 -18 13 -18 14 -1 28 65 53 145 135 145 150 0 10
16 38 35 64 20 25 33 50 30 54 -3 5 2 12 11 15 11 4 15 14 12 30 -3 14 6 57
19 97 12 39 23 83 23 97 0 24 -1 25 -20 7 -20 -18 -20 -17 -14 96 3 63 7 122
9 132 7 36 -12 15 -27 -30 -38 -115 -87 -236 -102 -252 -9 -10 -16 -22 -16
-28 0 -20 -101 -133 -118 -133 -26 1 -47 21 -70 67 -16 30 -18 43 -9 47 9 3 7
9 -5 19 -10 8 -18 25 -19 38 0 20 -4 18 -20 -16 -21 -45 -25 -105 -7 -123 13
-13 -7 -45 -27 -40 -15 4 -115 124 -139 168 -11 19 -22 37 -25 40 -17 15 -50
123 -72 238 -13 68 -18 75 -39 62 -12 -7 -15 -35 -15 -129 0 -66 -3 -123 -7
-127 -4 -4 -14 -1 -22 5 -8 7 -20 10 -26 6 -12 -8 -13 -37 -1 -51 5 -5 14 -26
21 -47 6 -21 25 -47 41 -59 44 -33 38 -56 -7 -29 -33 20 -74 21 -74 3 0 -15
41 -73 55 -78 8 -3 23 -21 34 -40 11 -19 27 -34 34 -34 17 0 49 -34 40 -43 -3
-4 -17 -7 -30 -7 -58 0 -1 -37 73 -47 24 -3 49 -12 55 -19 6 -8 24 -14 40 -14
16 0 29 -4 29 -9 0 -11 -25 -21 -52 -21 -17 0 -18 -3 -8 -15 7 -8 21 -15 31
-15 10 0 30 -5 44 -12 20 -9 25 -18 23 -37 -3 -22 -9 -27 -49 -32 -50 -7 -149
-47 -149 -59 0 -5 -11 -21 -24 -37 -26 -31 -22 -46 22 -70 33 -19 56 -16 82
12 20 21 32 25 65 23 34 -3 40 -6 37 -23 -2 -11 -4 -35 -5 -53 -2 -22 -10 -38
-22 -44 -11 -6 -21 -11 -21 -12 -1 -1 -5 -12 -9 -26 l-7 -25 23 21 c49 43 51
42 44 -35 -3 -39 -10 -85 -16 -103 -5 -20 -5 -36 1 -42 10 -10 10 -11 34 78
17 66 42 109 59 103 7 -2 23 -37 37 -78 l25 -74 3 90 c2 49 7 94 11 98 5 5 23
-1 40 -14 17 -12 33 -20 36 -17 3 3 -3 29 -15 57 -27 70 -26 91 4 91 13 0 26
-4 28 -9 2 -5 21 -11 43 -12 34 -3 40 -1 37 14 -2 12 9 22 35 33 21 9 61 31
90 50 28 19 56 34 62 34 6 0 16 -12 22 -27 34 -88 78 -176 104 -212 14 -19 25
-48 25 -64 0 -51 -31 -136 -77 -207 -22 -34 -102 -255 -107 -295 -2 -11 -6
-33 -9 -50 -4 -16 -9 -50 -12 -75 -5 -32 -16 -55 -40 -80 -18 -19 -53 -75 -77
-125 -27 -56 -52 -94 -66 -100 -31 -14 -102 -186 -102 -249 0 -17 -5 -48 -10
-68 l-11 -38 -62 24 c-203 76 -389 199 -542 357 -126 131 -183 210 -265 374
-70 138 -118 285 -145 439 -19 109 -19 339 -1 459 l13 88 -28 -6 c-31 -7 -41
9 -35 59 4 28 26 52 36 37 3 -4 15 -10 28 -13 22 -6 24 -4 26 50 1 9 4 19 8
22 3 3 16 29 27 58 l21 52 -24 0 c-15 0 -35 -12 -51 -32 -23 -27 -28 -29 -41
-16 -13 13 -13 19 6 51 12 21 26 34 31 31 5 -3 9 0 9 5 0 6 10 11 23 11 13 0
35 15 55 37 27 32 32 43 27 71 -7 41 20 102 45 102 10 0 20 8 23 18 2 9 2 -3
-1 -28 -5 -53 -8 -55 87 72 142 192 320 340 536 447 280 139 584 183 915 135z
m-1353 -276 c-3 -8 -6 -5 -6 6 -1 11 2 17 5 13 3 -3 4 -12 1 -19z m61 -10 c-3
-7 -13 -13 -23 -13 -10 0 -20 6 -22 13 -3 7 5 12 22 12 17 0 25 -5 23 -12z
m-232 -236 c13 -8 15 -42 2 -42 -4 0 -8 -8 -9 -17 0 -14 -2 -13 -9 5 -5 12
-16 22 -25 22 -8 0 -15 4 -15 10 0 5 -7 7 -15 4 -15 -6 -21 7 -8 19 9 9 65 9
79 -1z m2614 -17 c0 -8 5 -15 11 -15 6 0 9 -10 7 -22 -5 -40 -33 -28 -34 15
-1 20 3 37 7 37 5 0 9 -7 9 -15z m160 -311 c0 -2 -7 -4 -15 -4 -8 0 -15 4 -15
10 0 5 7 7 15 4 8 -4 15 -8 15 -10z m-71 -3 c16 -10 6 -31 -15 -31 -8 0 -14 9
-14 20 0 22 7 25 29 11z m-3100 -383 c0 -13 -3 -17 -6 -10 -2 6 -10 9 -16 5
-7 -4 -6 1 2 10 18 22 21 21 20 -5z m1919 -997 c17 -5 29 -17 35 -37 5 -16 25
-65 44 -108 29 -65 35 -90 34 -140 -1 -53 -5 -63 -28 -82 l-26 -21 8 -104 c10
-124 11 -206 2 -215 -29 -29 -430 -46 -536 -23 -43 9 -53 16 -67 45 l-17 34
72 148 c39 81 76 154 81 162 6 8 14 25 19 36 5 12 16 24 24 27 21 8 138 155
164 206 13 25 23 52 23 62 0 9 6 20 13 23 14 6 115 -3 155 -13z m775 -418 c4
-20 4 -39 1 -42 -8 -8 -23 21 -17 35 2 6 0 15 -6 19 -15 9 -14 25 3 25 8 0 16
-15 19 -37z m-213 -142 c0 -6 -4 -13 -10 -16 -5 -3 -10 1 -10 9 0 9 5 16 10
16 6 0 10 -4 10 -9z m40 -112 c0 -11 -4 -17 -10 -14 -5 3 -10 13 -10 21 0 8 5
14 10 14 6 0 10 -9 10 -21z"/>
<path d="M930 3535 c-24 -25 -42 -45 -39 -45 3 0 25 20 49 45 24 25 42 45 39
45 -3 0 -25 -20 -49 -45z"/>
<path d="M432 2165 c0 -16 2 -22 5 -12 2 9 2 23 0 30 -3 6 -5 -1 -5 -18z"/>
</g>
</svg>
